<?xml version="1.0" standalone="no"?>
<!DOCTYPE svg PUBLIC "-//W3C//DTD SVG 20010904//EN"
 "http://www.w3.org/TR/2001/REC-SVG-20010904/DTD/svg10.dtd">
<svg version="1.0" xmlns="http://www.w3.org/2000/svg"
 width="881.000000pt" height="881.000000pt" viewBox="0 0 881.000000 881.000000"
 preserveAspectRatio="xMidYMid meet">
<metadata>
Created by potrace 1.14, written by Peter Selinger 2001-2017
</metadata>
<g transform="translate(0.000000,881.000000) scale(0.100000,-0.100000)"
fill="#000000" stroke="none">
<path d="M4180 8558 c-2 -5 -3 -12 -4 -17 0 -5 -5 -13 -10 -18 -5 -4 -6 -3 -3
4 9 15 -13 22 -40 12 -13 -5 -29 -6 -37 -3 -8 3 -17 1 -21 -5 -3 -6 0 -9 8 -5
8 3 17 1 20 -3 10 -16 -43 -9 -54 7 -9 13 -10 12 -5 -2 3 -10 1 -18 -5 -18 -6
0 -8 -4 -4 -9 3 -6 -4 -8 -15 -6 -12 2 -20 -1 -20 -10 0 -8 -5 -17 -12 -21 -7
-4 -8 -3 -4 4 4 7 2 12 -3 12 -6 0 -11 -4 -11 -10 0 -5 -8 -10 -17 -10 -14 0
-15 -2 -5 -9 10 -6 7 -10 -12 -15 -14 -3 -26 -11 -26 -17 0 -6 -6 -7 -12 -3
-9 6 -9 3 0 -9 12 -14 11 -16 -7 -12 -12 2 -19 0 -16 -6 6 -8 -8 -13 -27 -10
-5 0 -7 -2 -7 -6 4 -23 -2 -43 -11 -38 -6 4 -7 11 -4 17 4 7 2 8 -5 4 -6 -4
-9 -12 -6 -17 6 -9 -4 -12 -40 -10 -11 0 -14 -2 -7 -5 20 -9 14 -21 -10 -19
-25 2 -60 -24 -51 -38 3 -6 1 -7 -5 -3 -6 4 -9 14 -6 24 3 9 -2 4 -11 -11 -12
-21 -22 -27 -36 -24 -17 5 -18 3 -8 -9 10 -12 9 -13 -3 -9 -9 4 -22 -1 -31 -9
-14 -14 -16 -14 -20 2 -4 13 -5 11 -6 -5 -1 -22 -21 -34 -21 -13 0 6 -5 10
-11 10 -5 0 -7 -4 -4 -10 3 -5 -1 -10 -9 -10 -9 0 -16 -7 -16 -16 0 -14 -2
-15 -17 -3 -14 12 -16 12 -8 0 6 -11 4 -13 -9 -8 -10 4 -15 3 -11 -3 4 -7 -4
-9 -22 -6 -25 5 -26 4 -10 -8 16 -12 16 -14 2 -20 -9 -3 -13 -2 -10 4 3 6 1
10 -4 10 -6 0 -11 -7 -11 -16 0 -8 -5 -12 -10 -9 -6 4 -7 11 -4 17 5 7 2 8 -5
4 -7 -5 -10 -14 -7 -22 3 -7 0 -16 -6 -20 -6 -4 -8 -3 -4 4 3 6 2 13 -4 17 -5
3 -10 1 -10 -5 0 -6 -5 -8 -11 -5 -6 4 -13 -2 -16 -13 -3 -12 -11 -18 -18 -16
-8 3 -19 -4 -25 -16 -9 -17 -14 -19 -26 -9 -12 10 -15 10 -12 -2 2 -8 -3 -13
-11 -11 -8 2 -11 -3 -8 -12 4 -11 0 -13 -18 -10 -15 3 -25 -2 -29 -12 -5 -13
-9 -14 -21 -4 -11 9 -15 9 -15 1 0 -7 -4 -10 -9 -7 -4 3 -17 -2 -27 -10 -10
-9 -13 -12 -5 -8 10 5 12 3 7 -5 -6 -9 -11 -9 -24 1 -13 11 -15 11 -10 -2 4
-11 -1 -16 -19 -18 -35 -3 -45 -11 -39 -31 5 -13 3 -13 -8 2 -13 17 -15 17
-23 2 -5 -9 -19 -17 -31 -18 -12 -1 -22 -5 -22 -10 0 -5 -7 -4 -15 3 -12 10
-14 8 -10 -9 2 -12 0 -19 -6 -16 -5 4 -12 -1 -15 -10 -6 -13 -8 -14 -15 -3 -6
9 -9 7 -9 -9 0 -12 -5 -25 -12 -29 -6 -4 -8 -3 -4 4 3 6 2 13 -4 17 -5 3 -10
2 -10 -2 0 -5 -14 -8 -30 -7 -17 1 -33 -3 -37 -9 -3 -5 -1 -7 5 -3 6 3 13 2
16 -3 7 -10 -19 -9 -30 1 -9 9 -35 -2 -29 -12 3 -5 1 -11 -5 -15 -5 -3 -10 -1
-10 5 0 6 -4 9 -10 5 -5 -3 -7 -12 -3 -20 3 -8 1 -15 -5 -15 -6 0 -13 6 -15
13 -3 6 -6 1 -6 -13 -1 -20 -3 -22 -11 -10 -5 8 -10 11 -10 5 0 -5 -5 -3 -11
5 -8 12 -9 11 -7 -5 2 -15 -3 -20 -19 -19 -12 0 -20 -3 -17 -8 11 -17 -7 -29
-24 -16 -10 7 -14 9 -10 4 9 -11 -34 -51 -55 -50 -11 1 -16 -4 -13 -11 3 -8
-2 -11 -15 -8 -11 3 -19 0 -19 -6 0 -7 5 -9 12 -5 7 4 8 3 4 -4 -4 -6 -13 -9
-21 -5 -10 3 -15 -1 -15 -13 0 -16 -2 -17 -10 -4 -8 12 -10 11 -10 -7 0 -12
-4 -25 -10 -28 -6 -4 -7 1 -3 10 5 15 3 15 -15 4 -11 -7 -18 -18 -16 -24 3 -6
-2 -12 -10 -12 -8 0 -12 5 -9 11 4 6 -1 5 -10 -3 -9 -7 -14 -18 -10 -25 4 -6
-1 -5 -10 3 -16 12 -17 12 -10 -5 6 -17 5 -17 -10 -5 -16 12 -17 12 -11 -5 4
-10 4 -16 -1 -12 -12 12 -45 -11 -39 -27 4 -10 0 -13 -15 -10 -23 4 -29 -10
-8 -18 9 -4 9 -6 -1 -6 -8 -1 -10 -6 -6 -13 6 -9 3 -9 -9 0 -14 12 -16 11 -12
-8 3 -18 2 -20 -10 -10 -13 10 -15 8 -15 -15 0 -16 -3 -26 -6 -22 -4 3 -13 0
-20 -8 -17 -17 -18 -29 -2 -19 7 4 8 3 4 -4 -4 -6 -14 -8 -23 -5 -11 4 -14 3
-9 -5 4 -8 0 -12 -11 -12 -14 0 -15 -2 -5 -9 10 -6 8 -10 -9 -14 -19 -5 -20
-8 -9 -22 11 -13 10 -14 -5 -8 -15 5 -17 3 -12 -11 4 -10 3 -15 -3 -11 -6 3
-10 -4 -10 -16 0 -22 0 -22 -15 -3 -8 10 -14 15 -13 9 1 -5 -4 -20 -11 -33 -7
-13 -10 -30 -7 -38 3 -8 -1 -17 -9 -20 -8 -3 -11 -12 -8 -21 4 -10 2 -14 -4
-10 -6 4 -14 0 -17 -9 -3 -8 -2 -12 4 -9 15 9 12 -4 -4 -20 -7 -8 -17 -11 -22
-7 -5 4 -2 -1 5 -10 11 -15 11 -18 1 -18 -8 0 -10 -3 -7 -7 4 -3 2 -13 -5 -20
-9 -11 -9 -17 3 -24 11 -7 11 -9 0 -9 -9 0 -11 -8 -7 -27 5 -21 4 -24 -4 -13
-9 13 -10 13 -11 0 0 -8 -2 -32 -3 -52 -2 -21 -9 -45 -17 -55 -9 -11 -10 -14
-1 -9 6 4 12 3 12 -3 0 -5 -5 -13 -11 -16 -6 -4 -8 -14 -5 -22 4 -9 2 -11 -6
-7 -8 5 -9 2 -5 -11 4 -9 2 -25 -5 -33 -11 -13 -11 -14 2 -7 13 8 13 7 1 -8
-11 -14 -11 -17 0 -17 9 -1 8 -4 -4 -11 -9 -6 -15 -15 -11 -21 3 -5 6 -28 6
-51 -1 -23 5 -48 11 -56 9 -11 9 -13 0 -8 -8 5 -11 0 -10 -13 1 -11 5 -20 10
-20 5 0 4 -7 -3 -15 -9 -10 -9 -15 -1 -15 6 0 11 -5 11 -11 0 -5 -5 -7 -12 -3
-7 5 -8 3 -2 -7 13 -21 14 -39 2 -39 -6 0 -5 -6 2 -15 10 -12 10 -18 0 -30
-10 -12 -10 -15 0 -15 9 0 9 -4 -1 -17 -10 -11 -10 -14 -1 -9 6 4 12 2 12 -3
0 -6 -5 -11 -11 -11 -7 0 -9 -10 -7 -25 3 -14 1 -23 -6 -22 -6 1 -10 -8 -10
-20 1 -13 -1 -23 -5 -23 -3 0 -7 -21 -8 -48 -3 -66 -4 -70 -21 -77 -12 -4 -12
-8 -1 -22 8 -9 9 -14 3 -10 -7 4 -12 -3 -12 -19 0 -15 -6 -30 -13 -35 -12 -7
-12 -9 0 -9 10 0 11 -3 2 -14 -9 -11 -9 -15 1 -19 11 -4 10 -6 0 -6 -7 -1 -10
-5 -7 -11 3 -5 2 -10 -4 -10 -6 0 -8 -7 -5 -15 4 -8 1 -15 -6 -15 -10 0 -10
-3 0 -15 7 -8 8 -15 3 -15 -6 0 -10 -20 -10 -45 0 -26 4 -45 11 -45 7 0 7 -3
1 -8 -13 -9 -17 -32 -6 -32 5 0 8 -16 6 -35 -2 -19 1 -32 6 -29 5 3 6 -2 3
-10 -3 -9 -11 -16 -18 -16 -7 0 -7 -3 -1 -8 12 -8 16 -42 6 -42 -4 0 -8 -7 -8
-15 0 -8 5 -15 11 -15 7 0 6 -3 -1 -8 -7 -4 -13 -30 -14 -57 -1 -28 -7 -53
-13 -57 -8 -6 -8 -8 0 -8 11 0 11 -46 0 -57 -3 -4 -1 -12 5 -19 7 -9 7 -19 -1
-33 -8 -16 -8 -21 1 -21 8 0 8 -4 -1 -15 -10 -12 -10 -15 0 -15 10 0 10 -3 1
-14 -8 -9 -8 -16 -2 -20 5 -4 8 -18 5 -32 -3 -17 -1 -23 7 -19 8 6 8 2 0 -12
-7 -14 -7 -23 1 -31 8 -8 8 -12 2 -12 -6 0 -9 -13 -6 -30 3 -19 8 -27 16 -23
6 4 5 -1 -3 -10 -10 -13 -10 -17 -1 -17 10 0 10 -3 1 -14 -8 -10 -9 -16 -1
-21 5 -3 10 -15 10 -26 0 -13 4 -18 12 -13 7 4 8 3 4 -4 -12 -19 -16 -53 -5
-47 5 4 9 1 9 -5 0 -6 5 -8 13 -4 8 5 8 2 -2 -9 -7 -9 -9 -17 -3 -17 5 0 13
-7 16 -16 4 -10 2 -13 -7 -9 -6 4 -3 -1 7 -9 17 -13 18 -18 6 -29 -8 -7 -10
-8 -7 -1 4 7 1 14 -7 17 -11 4 -13 -1 -10 -21 3 -21 2 -23 -6 -12 -5 8 -10 11
-10 6 0 -5 -6 -4 -12 1 -18 14 -47 8 -65 -14 -8 -10 -12 -12 -8 -5 9 17 -10
15 -28 -3 -8 -8 -18 -11 -23 -7 -5 4 -3 0 4 -9 10 -13 9 -19 -3 -29 -8 -7 -15
-9 -15 -4 0 11 -20 -18 -20 -30 0 -5 8 -2 18 5 16 13 16 13 2 -6 -8 -11 -22
-26 -30 -33 -13 -12 -13 -13 2 -8 10 3 20 1 23 -5 4 -5 3 -9 -2 -8 -29 5 -35
-3 -13 -16 14 -8 21 -14 15 -15 -5 0 -15 -11 -22 -25 -6 -14 -8 -23 -3 -20 4
3 10 -2 14 -10 3 -8 0 -15 -7 -16 -7 0 -3 -4 8 -9 11 -5 14 -9 8 -9 -7 -1 -13
-8 -13 -17 0 -8 4 -13 8 -10 13 8 11 -28 -2 -36 -6 -5 -2 -8 11 -8 16 0 20 -5
16 -19 -2 -10 3 -25 11 -34 10 -10 12 -18 6 -22 -5 -3 -10 -12 -10 -18 0 -7 4
-6 10 3 9 13 10 13 11 0 1 -8 1 -21 0 -28 -3 -17 24 -43 35 -34 5 4 2 -1 -5
-10 -12 -16 -11 -18 5 -19 18 0 18 -1 0 -8 -19 -7 -18 -8 5 -15 14 -4 19 -9
11 -13 -17 -7 -5 -24 12 -17 9 3 13 -1 13 -13 -1 -10 3 -17 9 -16 7 1 10 -6 7
-16 -3 -10 0 -22 6 -25 7 -5 9 0 5 11 -5 17 -5 17 6 0 6 -9 8 -23 4 -30 -5 -7
0 -6 11 3 10 8 16 10 12 3 -4 -6 -2 -17 5 -25 7 -7 20 -22 28 -33 15 -20 15
-20 -10 0 -25 20 -25 20 -10 0 25 -34 37 -44 44 -38 3 4 6 1 6 -5 0 -5 -6 -13
-12 -15 -8 -3 -7 -6 4 -6 9 -1 20 -6 24 -13 4 -7 3 -8 -4 -4 -7 4 -12 2 -12
-3 0 -6 5 -11 10 -11 6 0 10 -5 10 -11 0 -5 -6 -7 -12 -4 -7 4 -3 -2 9 -12 16
-13 20 -22 13 -32 -6 -10 -2 -24 10 -41 15 -20 16 -30 8 -38 -9 -9 -9 -12 1
-12 9 0 11 -8 8 -21 -4 -15 -2 -19 9 -15 12 5 12 2 3 -15 -8 -15 -8 -19 0 -15
6 4 11 0 11 -8 0 -9 6 -16 13 -16 8 0 7 -4 -3 -10 -10 -6 -11 -10 -2 -10 6 0
12 -7 12 -15 0 -8 5 -15 10 -15 6 0 10 -9 10 -21 0 -13 4 -18 13 -13 7 5 7 2
-2 -10 -12 -15 -12 -17 0 -14 8 2 13 -3 12 -9 -2 -7 1 -13 5 -13 4 0 9 -35 10
-77 2 -42 8 -84 15 -92 9 -12 9 -13 0 -7 -9 5 -13 0 -13 -14 0 -12 4 -19 9
-15 5 3 13 0 17 -6 4 -7 3 -9 -4 -5 -6 3 -13 2 -17 -4 -3 -5 -1 -10 4 -10 6 0
11 -9 11 -21 0 -11 4 -18 8 -15 4 2 8 -6 8 -19 0 -13 -4 -21 -8 -19 -5 3 -5
10 -2 16 4 7 2 8 -4 4 -16 -10 -16 -11 15 -42 l27 -27 -24 6 c-24 6 -24 5 -6
-8 11 -8 17 -15 13 -15 -4 0 1 -10 13 -22 11 -12 20 -28 20 -35 0 -7 5 -13 10
-13 6 0 10 -8 10 -17 0 -15 2 -16 10 -3 8 12 10 12 11 -5 0 -11 3 -14 6 -8 3
10 8 9 20 -2 8 -8 19 -13 24 -10 5 4 9 0 10 -7 0 -7 4 -4 9 7 7 17 9 17 9 3 1
-11 9 -18 20 -18 10 0 22 -8 26 -17 11 -26 13 -73 3 -67 -5 3 -5 10 -2 16 5 7
2 8 -6 3 -10 -6 -9 -12 6 -24 20 -17 32 -47 15 -37 -5 4 -13 1 -17 -5 -5 -8
-3 -9 6 -4 10 6 12 4 6 -10 -5 -14 -4 -15 7 -7 10 8 13 6 14 -9 1 -11 -3 -17
-9 -13 -5 4 -5 -4 2 -17 17 -32 25 -39 16 -14 -5 13 -4 17 3 10 5 -5 11 -21
13 -35 2 -14 7 -31 12 -39 5 -8 5 -12 0 -9 -5 4 -10 -5 -10 -18 -2 -23 -1 -24
12 -7 13 17 14 17 7 -2 -3 -11 -11 -23 -17 -28 -6 -4 1 -5 16 -3 17 3 28 -1
32 -11 9 -23 7 -26 -12 -21 -11 3 -19 0 -19 -8 0 -7 4 -11 9 -8 4 3 15 -1 23
-9 13 -13 13 -16 -1 -21 -8 -3 -12 -2 -9 4 3 5 -1 7 -9 4 -12 -5 -13 -9 -3
-19 9 -9 14 -10 19 -1 7 10 12 -16 11 -52 -1 -10 2 -10 13 -1 12 10 13 9 8 -6
-6 -14 -4 -16 7 -10 11 7 11 5 -1 -10 -14 -17 -13 -18 8 -12 13 3 21 3 18 0
-3 -3 -1 -15 5 -26 9 -15 8 -18 -3 -11 -11 6 -11 5 1 -9 7 -9 10 -17 5 -17 -5
-1 2 -8 16 -16 24 -14 24 -15 3 -11 -13 3 -23 1 -23 -4 0 -5 7 -9 16 -9 12 0
15 -7 12 -24 -4 -17 -1 -23 9 -19 19 7 45 -5 38 -17 -4 -6 -12 -7 -19 -3 -7 4
-4 1 6 -9 13 -12 15 -18 6 -21 -10 -4 -10 -6 0 -6 6 -1 12 -10 12 -21 0 -11 3
-20 8 -21 33 -3 59 -12 72 -24 12 -13 12 -15 0 -16 -8 -1 -18 -1 -22 0 -5 0
-8 -3 -8 -8 0 -11 29 -23 40 -16 5 3 7 -3 5 -14 -2 -13 3 -21 18 -25 17 -5 19
-8 8 -15 -15 -10 3 -26 18 -16 5 3 13 0 17 -6 4 -7 3 -9 -3 -6 -6 4 -17 0 -24
-9 -12 -15 -10 -15 25 0 47 19 46 19 46 1 0 -7 -7 -18 -16 -23 -17 -9 -16 -10
31 -50 8 -7 12 -18 9 -24 -4 -6 -3 -8 2 -5 14 8 75 -24 71 -37 -2 -6 -15 -10
-28 -9 l-24 3 23 -10 c13 -6 28 -8 33 -4 5 3 4 -7 -1 -23 -8 -23 -8 -25 2 -12
13 16 43 15 32 -2 -3 -5 0 -9 6 -9 6 0 9 -4 6 -9 -3 -5 2 -15 12 -22 15 -13
16 -12 4 3 -8 9 -9 19 -4 22 12 7 22 -16 22 -48 0 -12 6 -28 12 -34 10 -10 10
-15 -2 -22 -9 -6 -10 -10 -3 -10 7 0 17 10 24 21 7 15 8 19 0 15 -7 -4 -9 -1
-5 8 5 13 9 12 24 -6 10 -13 16 -31 15 -40 -2 -10 2 -18 9 -18 20 0 44 -33 37
-50 -3 -8 -15 -16 -26 -17 -18 -1 -17 1 5 19 l25 20 -24 -14 c-33 -19 -38 -38
-11 -38 12 0 18 -4 15 -10 -4 -6 -12 -7 -18 -3 -7 4 -6 0 2 -10 14 -18 26 -23
17 -8 -3 5 1 11 9 15 8 3 15 1 15 -4 0 -5 6 -8 12 -6 7 1 10 1 5 -1 -4 -3 -5
-9 -2 -14 4 -5 0 -6 -8 -3 -8 3 -18 1 -22 -5 -3 -7 0 -8 10 -5 10 4 14 1 12
-7 -2 -8 -2 -11 0 -6 8 14 19 7 20 -13 1 -11 -3 -19 -9 -17 -6 1 -13 -5 -15
-13 -4 -12 -3 -12 5 -2 5 8 13 14 18 13 5 0 8 7 7 15 -1 12 4 11 18 -5 29 -30
25 -51 -8 -45 -19 3 -24 2 -14 -5 8 -5 12 -19 9 -35 -5 -26 -5 -26 15 -9 11
10 18 13 14 7 -3 -6 0 -11 8 -11 8 0 12 4 9 9 -3 4 -1 8 4 8 16 0 24 -52 11
-64 -9 -8 -10 -6 -5 9 4 11 3 16 -1 11 -9 -9 -12 -55 -3 -54 21 2 34 -3 23
-10 -8 -5 -5 -15 11 -32 24 -27 46 -36 46 -20 0 5 -6 10 -14 10 -8 0 -18 5
-22 11 -4 7 -1 10 7 7 8 -3 21 1 31 9 11 10 18 11 23 3 4 -6 1 -9 -7 -8 -7 2
-13 -3 -12 -9 3 -39 5 -44 14 -38 6 3 10 1 10 -5 0 -6 -8 -9 -18 -6 -12 4 -19
1 -19 -8 0 -9 3 -13 7 -11 3 2 12 0 20 -6 11 -6 5 -8 -18 -5 -18 2 -35 -1 -39
-7 -4 -6 -1 -7 7 -2 10 6 12 4 7 -8 -3 -10 -2 -17 3 -17 6 0 10 5 10 10 0 19
16 10 17 -10 1 -11 -2 -18 -6 -16 -4 3 -8 -2 -8 -11 0 -12 4 -11 19 7 10 12
15 27 11 33 -3 5 -1 7 5 3 5 -3 13 0 15 6 3 8 6 6 6 -4 1 -10 -3 -18 -9 -18
-12 0 -6 -45 6 -46 19 -2 44 -17 44 -26 0 -5 -4 -7 -8 -4 -5 3 -9 -1 -9 -9 0
-10 8 -13 24 -11 12 3 26 0 29 -6 4 -7 2 -8 -4 -4 -17 10 -15 -3 2 -20 10 -10
13 -28 10 -60 -3 -26 -1 -51 6 -58 8 -10 6 -15 -6 -20 -9 -4 -14 -9 -11 -12 3
-4 -1 -13 -9 -21 -8 -8 -12 -18 -9 -22 2 -5 -4 -16 -15 -26 -11 -10 -20 -15
-20 -11 0 4 -7 0 -16 -9 -10 -9 -24 -13 -38 -10 -11 4 -16 3 -11 -2 17 -14 16
-33 -2 -26 -10 4 -14 2 -9 -5 3 -6 1 -14 -5 -18 -7 -4 -9 -3 -5 4 3 6 2 13 -4
17 -5 3 -10 -1 -10 -10 0 -11 -5 -15 -14 -12 -10 4 -13 1 -9 -8 3 -8 10 -12
17 -8 6 3 7 2 3 -2 -7 -9 -28 -15 -54 -17 -10 -1 -10 -5 -1 -17 7 -9 8 -13 4
-9 -11 10 -38 -11 -30 -23 3 -5 -2 -9 -11 -9 -9 0 -14 4 -10 9 3 5 1 12 -4 15
-11 7 -9 -13 2 -31 6 -9 3 -11 -9 -6 -12 4 -15 3 -10 -5 5 -8 1 -10 -11 -5
-16 6 -17 5 -3 -12 14 -17 14 -18 -9 -6 -15 8 -21 9 -17 2 4 -6 2 -11 -4 -11
-6 0 -8 -4 -5 -10 3 -6 -1 -7 -9 -4 -9 3 -16 1 -16 -4 0 -6 -9 -14 -20 -17
-11 -4 -18 -11 -14 -16 3 -5 2 -9 -3 -8 -21 4 -34 -2 -27 -13 5 -8 -2 -9 -24
-5 -20 4 -32 2 -32 -4 0 -6 5 -7 10 -4 5 3 10 0 10 -8 0 -10 -7 -13 -20 -10
-15 4 -20 0 -20 -13 0 -16 -2 -17 -10 -4 -9 15 -11 13 -14 -12 -1 -7 -10 -12
-20 -10 -11 2 -15 -1 -11 -7 4 -7 0 -8 -11 -4 -13 5 -15 3 -9 -8 7 -11 5 -11
-10 1 -15 12 -17 12 -10 1 6 -11 4 -13 -8 -8 -12 4 -14 2 -10 -10 4 -11 2 -14
-5 -9 -7 4 -12 2 -12 -5 0 -8 -5 -7 -17 2 -11 10 -14 10 -9 1 4 -7 1 -12 -9
-12 -9 0 -13 -5 -10 -10 3 -6 1 -10 -5 -10 -6 0 -8 -4 -5 -10 3 -6 -1 -7 -9
-4 -9 3 -13 11 -9 17 3 6 1 7 -5 3 -6 -3 -9 -15 -7 -26 2 -11 -1 -23 -7 -26
-6 -4 -8 -3 -5 3 4 6 1 13 -7 16 -19 8 -28 -3 -15 -19 8 -9 5 -11 -9 -7 -11 2
-23 0 -26 -6 -5 -7 0 -9 11 -5 15 5 15 4 3 -4 -10 -8 -19 -7 -29 1 -12 9 -13
9 -7 -1 4 -7 2 -12 -7 -12 -8 0 -21 -8 -28 -17 -12 -14 -12 -16 0 -8 10 6 12
4 6 -4 -5 -9 -11 -9 -17 -3 -11 11 -51 -16 -43 -28 4 -6 -3 -8 -42 -11 -22 -2
-43 -18 -43 -33 0 -6 7 -2 15 8 8 11 15 15 15 10 0 -17 -22 -33 -36 -27 -8 3
-11 9 -8 14 3 5 -2 6 -10 3 -9 -3 -13 -11 -9 -17 4 -6 0 -8 -10 -4 -9 3 -19 2
-22 -4 -4 -5 -11 -6 -17 -3 -6 4 -6 -1 1 -14 8 -15 8 -23 -1 -28 -6 -4 -8 -3
-4 4 3 6 2 13 -4 17 -5 3 -10 1 -10 -5 0 -6 -4 -8 -10 -5 -5 3 -10 1 -10 -4 0
-6 -5 -11 -11 -11 -5 0 -7 4 -4 10 3 6 -1 7 -9 4 -9 -3 -14 -11 -13 -17 1 -7
-6 -12 -16 -12 -10 0 -24 -7 -30 -16 -7 -9 -18 -14 -26 -11 -8 3 -11 0 -7 -6
4 -6 -3 -16 -15 -22 -19 -11 -20 -10 -14 10 7 21 6 22 -12 3 -13 -12 -16 -21
-9 -26 6 -4 -3 -6 -20 -3 -28 3 -31 1 -27 -18 4 -18 3 -19 -7 -6 -10 12 -11
11 -7 -8 7 -28 -1 -28 -13 1 l-9 22 0 -24 c-1 -24 -1 -24 -16 -5 -15 18 -15
18 -8 0 5 -16 3 -18 -15 -14 -12 4 -25 1 -29 -4 -3 -6 -1 -8 5 -4 6 3 13 2 16
-3 4 -5 -10 -15 -29 -21 -22 -7 -33 -16 -28 -23 4 -8 1 -7 -9 1 -9 7 -18 9
-20 5 -1 -5 -18 -19 -37 -32 -25 -18 -35 -21 -41 -11 -6 10 -15 8 -38 -8 -16
-12 -32 -19 -35 -16 -3 3 -3 -5 0 -18 2 -13 1 -19 -4 -13 -10 13 -36 18 -29 6
7 -11 -72 -54 -85 -46 -5 4 -9 2 -9 -4 0 -6 -20 -22 -45 -37 -25 -14 -45 -28
-45 -30 0 -2 1460 -4 3245 -4 l3245 0 0 808 0 807 -32 14 c-18 8 -48 27 -67
43 -18 16 -52 38 -75 48 -51 23 -177 49 -234 49 -24 0 -59 5 -78 11 -19 7 -44
10 -55 7 -10 -3 -17 -1 -13 4 3 5 -3 9 -14 9 -10 0 -52 25 -93 56 -41 31 -90
63 -109 73 -37 18 -88 20 -98 5 -4 -5 -16 -10 -27 -10 -11 0 -19 -6 -17 -12 2
-10 -3 -10 -17 -2 -25 13 -41 13 -21 0 13 -9 13 -10 0 -11 -8 0 -23 -2 -32 -4
-15 -3 -16 0 -6 18 11 22 11 22 -11 3 -13 -12 -21 -14 -21 -7 0 7 -4 9 -10 6
-9 -5 -14 6 -12 26 1 3 -6 6 -13 6 -12 0 -12 -3 -3 -16 8 -10 4 -9 -9 3 -13
10 -20 23 -17 28 4 6 -3 5 -15 -2 -19 -10 -22 -9 -19 7 2 12 -4 19 -20 21 -12
2 -20 7 -17 12 3 5 0 12 -6 16 -8 4 -9 3 -5 -4 10 -16 -2 -15 -19 2 -8 7 -11
16 -8 20 4 3 -5 6 -19 6 -18 0 -27 7 -31 21 -4 14 -10 18 -18 13 -9 -5 -10 -2
-6 9 3 9 2 19 -3 22 -6 4 -10 1 -10 -5 0 -6 -5 -8 -10 -5 -8 5 -7 11 1 21 9
12 9 13 -3 9 -8 -3 -21 1 -28 9 -7 9 -17 13 -22 10 -6 -4 -5 3 1 15 10 17 9
21 -4 21 -10 0 -13 5 -9 12 5 8 2 9 -10 5 -16 -6 -17 -3 -12 20 4 16 3 23 -1
18 -8 -11 -35 -15 -31 -5 3 11 -23 50 -34 47 -6 -1 -13 5 -15 13 -4 13 -3 13
6 0 8 -12 10 -11 8 7 0 12 -4 21 -7 21 -24 -2 -32 4 -27 23 5 17 2 20 -15 16
-15 -4 -18 -3 -10 5 13 13 4 40 -12 31 -6 -3 -3 3 8 15 17 20 17 22 2 28 -14
5 -14 9 -4 22 10 12 10 14 0 8 -9 -5 -11 3 -8 33 3 28 0 38 -8 35 -7 -3 -13 2
-13 11 0 8 5 15 11 15 6 0 5 4 -3 9 -20 13 -22 51 -2 51 13 1 13 2 -2 11 -18
10 -18 11 0 26 10 8 12 12 6 8 -14 -7 -15 -3 -15 68 -1 26 -6 47 -11 47 -6 0
-7 3 -3 7 4 5 12 8 17 8 5 0 8 4 7 10 -2 5 -8 9 -14 7 -6 -1 -11 4 -11 13 0 8
4 12 9 9 5 -4 9 0 7 7 -3 27 1 40 11 34 6 -3 10 1 10 9 0 9 -4 16 -10 16 -5 0
-10 7 -10 16 0 11 6 15 19 11 10 -2 25 0 32 5 11 8 10 9 -3 5 -27 -9 -41 17
-33 63 4 22 11 38 16 35 5 -4 6 1 3 10 -5 13 -9 13 -23 3 -11 -8 -10 -5 3 10
11 12 16 22 11 22 -4 0 -2 7 5 15 7 8 17 12 23 8 6 -3 7 -1 3 5 -3 6 -16 9
-27 7 -16 -3 -18 -1 -10 9 6 7 7 17 3 21 -4 5 2 5 13 2 18 -6 18 -6 3 6 -12 9
-14 18 -7 30 7 11 6 17 -1 17 -5 0 -10 5 -10 11 0 5 4 8 9 5 5 -4 6 9 1 29 -5
24 -4 33 3 28 6 -4 8 2 5 15 -4 12 -2 25 4 28 5 3 6 13 3 23 -4 9 -9 31 -12
49 -3 25 0 32 9 26 10 -5 11 -4 1 7 -15 15 -17 33 -4 25 4 -3 6 6 3 21 -3 18
-1 24 7 19 6 -4 11 -3 11 3 0 5 -6 12 -12 14 -8 4 -7 6 4 6 9 1 19 7 21 14 3
7 6 5 6 -5 1 -10 6 -18 12 -18 6 0 9 6 6 14 -4 11 -1 11 18 2 13 -6 21 -15 18
-20 -4 -5 -1 -6 6 -2 6 4 18 3 26 -4 9 -8 15 -8 20 0 4 6 1 9 -6 8 -6 -2 -14
3 -16 10 -4 9 2 11 23 6 18 -5 25 -3 20 4 -4 7 1 10 14 7 13 -2 20 1 20 11 0
8 7 14 15 14 8 0 15 7 15 15 0 8 4 15 9 15 14 0 21 44 8 53 -8 6 -5 7 9 4 18
-4 20 0 20 33 -1 21 2 36 7 33 4 -2 7 1 7 7 0 6 4 8 10 5 6 -3 7 1 3 10 -4 13
-7 14 -14 3 -6 -9 -8 -6 -6 10 1 13 6 21 13 18 17 -6 11 24 -7 35 -11 7 -10 9
5 9 17 0 17 2 2 24 -11 18 -13 27 -4 32 7 5 8 3 3 -6 -5 -9 -4 -11 3 -6 9 5 9
13 1 28 -6 11 -7 18 -2 15 5 -3 15 3 22 15 7 11 8 17 2 13 -6 -3 -11 -1 -11 4
0 6 5 11 11 11 5 0 7 5 4 10 -4 6 -12 7 -18 3 -8 -5 -8 -2 0 9 7 8 9 19 5 23
-4 5 -1 5 6 1 6 -4 12 -2 12 4 0 6 5 8 10 5 6 -3 10 -1 10 4 0 6 -6 11 -12 12
-7 0 -4 4 7 9 11 5 14 9 7 9 -7 1 -10 6 -7 11 4 6 11 7 17 4 6 -4 6 2 -1 15
-9 17 -9 20 3 15 18 -7 30 12 15 22 -8 5 -9 3 -4 -6 6 -9 4 -11 -5 -5 -18 11
15 36 38 29 10 -3 7 1 -5 7 l-23 12 22 18 c19 17 19 19 3 19 -18 0 -18 0 0 13
13 10 15 16 6 21 -9 6 -9 11 0 22 6 7 16 11 21 8 6 -4 2 5 -7 20 -17 25 -16
26 1 26 16 0 17 2 4 11 -12 9 -11 10 6 6 13 -3 21 1 21 9 0 7 -5 10 -10 7 -5
-3 -7 0 -5 8 3 8 10 13 16 12 5 -1 13 4 16 13 4 10 2 13 -6 8 -7 -4 -8 -3 -4
4 4 7 14 12 23 12 9 0 13 3 10 7 -4 3 1 12 11 20 16 13 16 14 0 9 -12 -3 -15
-1 -12 9 3 8 9 14 12 13 19 -2 32 3 32 13 0 5 -6 7 -12 3 -10 -6 -10 -5 -1 8
7 8 10 18 6 22 -4 4 1 4 11 0 14 -5 17 -4 12 4 -4 7 -2 12 4 12 6 0 8 5 5 10
-3 6 4 14 17 19 21 9 21 10 3 11 -18 1 -19 1 -2 11 9 5 17 18 17 28 0 10 11
30 24 44 18 19 21 28 12 38 -8 9 -8 10 2 5 8 -5 14 2 18 23 4 17 9 29 13 26 4
-2 7 6 8 18 6 200 5 220 -5 213 -5 -3 -9 1 -9 9 0 8 5 11 10 8 6 -3 -1 14 -14
38 -13 24 -27 45 -31 47 -4 2 -4 10 -1 18 3 8 0 14 -7 14 -6 0 -8 5 -4 12 4 7
3 8 -5 4 -6 -4 -14 0 -17 8 -3 9 -12 16 -20 16 -7 0 -17 6 -21 13 -4 6 -19 18
-33 26 -24 13 -24 13 -10 -4 14 -17 13 -18 -5 -8 -18 8 -56 10 -70 3 -3 -1 -8
-3 -12 -4 -5 -1 -14 -5 -20 -9 -7 -5 -13 -7 -14 -5 0 2 -2 64 -4 138 -4 143
-5 157 -19 179 -7 11 -6 12 5 6 11 -7 12 -6 3 6 -6 8 -14 34 -18 59 -4 25 -9
63 -12 85 -4 22 -7 46 -7 53 0 6 -5 12 -10 12 -5 0 -4 6 2 14 9 11 9 15 -1 18
-10 4 -10 9 2 23 9 11 10 16 3 11 -9 -5 -13 0 -13 13 0 12 1 22 2 24 1 1 -4
13 -11 26 -7 13 -9 21 -3 17 5 -3 4 11 -3 31 -7 21 -11 46 -10 55 2 10 1 18
-3 18 -4 0 -9 10 -10 23 -2 25 -10 62 -12 62 -1 0 -4 11 -14 60 -1 6 -6 16
-10 24 -7 11 -6 12 5 6 11 -7 12 -6 3 6 -6 8 -11 37 -12 66 0 29 -3 57 -7 64
-4 6 -10 28 -12 48 -3 20 -10 42 -17 50 -9 12 -8 13 4 6 13 -8 13 -6 2 8 -8 9
-11 21 -8 26 4 5 2 12 -3 15 -5 4 -8 17 -6 31 1 14 -2 25 -7 25 -6 0 -8 7 -4
15 3 8 0 20 -7 27 -7 7 -14 22 -15 33 -2 11 -11 38 -19 60 -8 22 -17 50 -20
63 -3 12 -10 22 -15 22 -5 0 -7 4 -3 9 3 5 1 12 -5 16 -6 4 -8 11 -5 16 4 5 1
9 -5 9 -6 0 -8 5 -5 10 3 6 1 10 -4 10 -6 0 -10 3 -9 8 1 4 -3 17 -10 28 -6
12 -8 24 -5 28 3 3 2 6 -4 6 -6 0 -17 15 -24 33 -6 17 -13 34 -14 37 -2 3 -6
15 -10 28 -4 12 -12 22 -17 22 -5 0 -7 4 -4 9 3 4 -1 17 -9 27 -8 10 -15 27
-15 36 0 9 -4 18 -10 20 -5 2 -11 15 -12 31 -1 15 -6 27 -10 27 -4 0 -8 14 -8
30 0 17 -4 30 -9 30 -4 0 -7 11 -6 25 2 14 0 27 -5 30 -4 2 -6 16 -5 30 2 14
-1 25 -6 25 -5 0 -9 6 -9 14 0 22 -40 86 -53 86 -7 0 -5 5 3 10 13 8 12 10 -3
10 -11 0 -21 9 -24 20 -3 11 -10 20 -15 20 -5 0 -6 5 -3 10 3 6 2 10 -4 10 -5
0 -8 11 -7 25 2 13 -1 22 -5 19 -8 -5 -13 10 -10 29 0 4 -3 7 -8 7 -5 0 -12 7
-15 16 -4 10 -2 13 7 8 6 -4 4 2 -5 13 -10 11 -18 24 -18 30 0 6 -4 13 -9 15
-5 2 -11 9 -13 17 -3 15 -29 44 -132 152 -30 31 -59 65 -65 75 -7 13 -10 14
-11 5 0 -9 -7 -5 -21 10 -11 13 -25 25 -30 25 -5 1 -12 3 -16 4 -5 1 -11 2
-15 1 -5 0 -8 6 -8 14 0 8 -7 15 -16 15 -8 0 -22 7 -31 16 -9 8 -22 13 -30 10
-8 -3 -11 -1 -8 4 3 6 -3 10 -14 10 -11 0 -27 7 -35 16 -9 8 -16 12 -16 7 0
-4 -6 2 -14 13 -15 21 -40 25 -64 10 -8 -4 -12 -1 -12 9 0 9 -4 13 -10 10 -5
-3 -10 -1 -10 6 0 8 -4 8 -15 -1 -12 -10 -15 -10 -15 0 0 10 -3 10 -15 0 -12
-10 -15 -10 -15 4 0 19 -11 21 -29 4 -10 -11 -11 -10 -5 5 5 13 2 16 -12 10
-13 -5 -15 -3 -9 8 7 12 6 12 -7 1 -14 -11 -17 -10 -21 5 -4 17 -5 16 -6 -1
-1 -18 -2 -18 -20 3 -18 20 -20 21 -24 4 -4 -17 -5 -17 -6 1 -1 12 -6 16 -16
12 -8 -3 -15 0 -15 6 0 7 -4 7 -14 -1 -11 -9 -16 -9 -22 0 -5 8 -3 9 6 4 9 -5
11 -4 6 3 -5 9 -13 9 -27 2 -13 -7 -19 -7 -19 0 0 5 -5 10 -11 10 -5 0 -7 -4
-4 -10 3 -6 -1 -7 -9 -4 -9 3 -16 11 -16 18 0 6 -5 4 -10 -4 -7 -11 -10 -12
-10 -2 0 9 -10 12 -29 10 -16 -1 -37 4 -47 12 -10 8 -15 10 -11 4 3 -6 0 -11
-8 -11 -8 0 -13 3 -10 5 11 11 -30 30 -47 21 -13 -7 -20 -4 -28 12 -11 20 -12
20 -31 3 -15 -13 -18 -14 -14 -3 4 10 -2 15 -20 17 -14 1 -25 -3 -25 -9 0 -6
-7 -3 -16 5 -8 9 -20 14 -25 11 -5 -4 -9 -1 -9 6 0 6 -8 9 -20 6 -12 -3 -18
-1 -14 5 4 6 -1 8 -14 4 -11 -4 -23 -2 -27 4 -3 6 -12 7 -18 3 -7 -4 -5 2 3
12 14 17 14 18 -7 7 -17 -9 -22 -9 -27 3 -3 8 -12 12 -19 9 -8 -3 -17 2 -20
10 -4 9 -13 13 -22 10 -8 -3 -15 -1 -15 5 0 6 -3 10 -7 10 -21 -3 -33 2 -27
12 4 7 -2 7 -17 -1 -13 -7 -21 -9 -17 -5 12 12 -15 34 -29 23 -9 -7 -11 -5 -8
9 2 11 -2 20 -8 20 -25 1 -43 9 -55 25 -7 9 -21 15 -32 13 -11 -2 -18 0 -15 6
4 5 -1 9 -9 9 -9 0 -16 8 -16 18 0 14 -2 15 -10 2 -8 -12 -10 -11 -10 8 0 19
-5 23 -25 21 -10 0 -70 53 -83 75 -7 11 -11 14 -9 5 3 -9 -1 -16 -8 -16 -8 0
-12 8 -9 20 2 11 1 17 -3 13 -3 -3 -13 0 -21 7 -13 10 -15 9 -8 -3 4 -9 2 -8
-7 2 -8 10 -17 15 -20 11 -4 -3 -7 -1 -7 5 0 6 -7 9 -15 6 -8 -4 -22 -1 -30 6
-8 6 -19 9 -25 5 -5 -3 -10 -2 -10 4 0 5 6 12 13 15 6 2 3 4 -8 3 -11 -2 -25
-6 -32 -10 -6 -4 -14 -1 -16 5 -3 7 -6 10 -7 6z m414 -236 c3 -5 -1 -9 -9 -9
-8 0 -12 4 -9 9 3 4 7 8 9 8 2 0 6 -4 9 -8z m167 -119 c13 -16 12 -17 -3 -4
-10 7 -18 15 -18 17 0 8 8 3 21 -13z m336 -95 c-3 -8 -6 -5 -6 6 -1 11 2 17 5
13 3 -3 4 -12 1 -19z m-1952 -118 c3 -5 1 -10 -4 -10 -6 0 -11 5 -11 10 0 6 2
10 4 10 3 0 8 -4 11 -10z m2589 -28 c3 -5 -1 -9 -9 -9 -8 0 -12 4 -9 9 3 4 7
8 9 8 2 0 6 -4 9 -8z m-3687 -741 c0 -11 -5 -18 -9 -15 -4 3 -5 11 -1 19 7 21
12 19 10 -4z m2896 -2042 c-17 -17 -37 -1 -22 17 8 10 15 12 23 4 7 -7 7 -13
-1 -21z m-1878 -88 c7 -12 -12 -24 -25 -16 -11 7 -4 25 10 25 5 0 11 -4 15 -9z
m-1104 -1108 c13 -16 12 -17 -3 -4 -10 7 -18 15 -18 17 0 8 8 3 21 -13z m4549
-654 c0 -5 -4 -9 -8 -9 -5 0 -9 7 -9 15 0 8 4 12 9 9 4 -3 8 -9 8 -15z m-1606
-281 c-4 -6 -1 -14 7 -18 10 -7 10 -11 0 -24 -7 -9 -17 -13 -22 -10 -10 6 -12
57 -3 67 10 10 25 -3 18 -15z m-2089 -838 c-3 -5 -1 -10 6 -10 7 0 10 -3 6 -6
-9 -9 -28 6 -22 17 4 5 8 9 11 9 3 0 2 -4 -1 -10z m152 -202 c-3 -7 -5 -2 -5
12 0 14 2 19 5 13 2 -7 2 -19 0 -25z m3923 -32 c0 -3 -4 -8 -10 -11 -5 -3 -10
-1 -10 4 0 6 5 11 10 11 6 0 10 -2 10 -4z m-3767 -170 c4 -10 1 -13 -9 -9 -15
6 -19 23 -5 23 5 0 11 -7 14 -14z m85 -190 c-10 -18 -9 -19 4 -9 23 19 19 -13
-4 -34 -11 -9 -18 -11 -18 -5 0 7 5 12 10 12 6 0 5 6 -2 14 -7 8 -17 12 -21 9
-5 -3 -3 4 4 14 17 28 42 27 27 -1z m106 -127 c-3 -6 0 -15 7 -20 9 -5 10 -9
2 -9 -12 0 -12 -17 0 -37 12 -19 -2 -37 -17 -24 -7 6 -16 7 -20 3 -4 -4 -6 0
-4 8 2 8 7 18 12 22 5 3 9 20 8 37 0 17 4 31 9 31 6 0 7 -5 3 -11z m-970
-1047 c3 -5 -1 -9 -9 -9 -8 0 -12 4 -9 9 3 4 7 8 9 8 2 0 6 -4 9 -8z m-130
-70 c3 -5 -1 -9 -9 -9 -8 0 -12 4 -9 9 3 4 7 8 9 8 2 0 6 -4 9 -8z m-414 -212
c0 -5 -5 -10 -11 -10 -5 0 -7 5 -4 10 3 6 8 10 11 10 2 0 4 -4 4 -10z m-30
-20 c0 -5 -5 -10 -11 -10 -5 0 -7 5 -4 10 3 6 8 10 11 10 2 0 4 -4 4 -10z"/>
<path d="M4455 8430 c3 -5 8 -10 11 -10 2 0 4 5 4 10 0 6 -5 10 -11 10 -5 0
-7 -4 -4 -10z"/>
<path d="M7125 4579 c-11 -16 -1 -19 13 -3 7 8 8 14 3 14 -5 0 -13 -5 -16 -11z"/>
<path d="M2116 3295 c4 -8 11 -15 16 -15 6 0 5 6 -2 15 -7 8 -14 15 -16 15 -2
0 -1 -7 2 -15z"/>
<path d="M2289 3166 c6 -7 7 -17 3 -22 -4 -4 1 -2 11 5 19 15 16 24 -9 27 -11
2 -12 -1 -5 -10z"/>
<path d="M6503 3077 c0 -8 6 -14 14 -14 9 0 10 4 2 14 -6 7 -12 13 -14 13 -1
0 -2 -6 -2 -13z"/>
<path d="M2353 2955 c0 -8 4 -12 9 -9 5 3 6 10 3 15 -9 13 -12 11 -12 -6z"/>
<path d="M2602 2410 c0 -14 2 -19 5 -12 2 6 2 18 0 25 -3 6 -5 1 -5 -13z"/>
<path d="M2715 2250 c3 -5 8 -10 11 -10 2 0 4 5 4 10 0 6 -5 10 -11 10 -5 0
-7 -4 -4 -10z"/>
<path d="M6680 2156 c0 -2 7 -9 15 -16 9 -7 15 -8 15 -2 0 5 -7 12 -15 16 -8
3 -15 4 -15 2z"/>
<path d="M3042 1765 c-9 -11 -9 -15 -1 -15 6 0 8 -7 5 -16 -3 -8 -2 -13 3 -10
6 4 13 58 7 56 0 -1 -7 -7 -14 -15z"/>
<path d="M3323 1118 c1 -7 -4 -12 -11 -10 -8 1 -11 -2 -7 -8 5 -8 11 -8 21 1
7 6 11 15 8 20 -8 13 -14 11 -11 -3z"/>
<path d="M1825 190 c-3 -6 1 -7 9 -4 18 7 21 14 7 14 -6 0 -13 -4 -16 -10z"/>
</g>
</svg>
